<svg data-v-0dd9719b="" version="1.0" xmlns="http://www.w3.org/2000/svg" xmlns:xlink="http://www.w3.org/1999/xlink" width="100%" height="100%" viewBox="0 0 340.000000 250.000000" preserveAspectRatio="xMidYMid meet" color-interpolation-filters="sRGB" style="margin: auto;"> <rect data-v-0dd9719b="" x="0" y="0" width="100%" height="100%" fill="#fef0da" fill-opacity="0" class="background"></rect> <rect data-v-0dd9719b="" x="0" y="0" width="100%" height="100%" fill="url(#watermark)" fill-opacity="1" class="watermarklayer"></rect> <g data-v-0dd9719b="" fill="#f4400d" class="icon-text-wrapper icon-svg-group iconsvg" transform="translate(74.94999694824219,73.86479949951172)"><g class="iconsvg-imagesvg" transform="matrix(1,0,0,1,0,0)" opacity="1"><g><rect fill="#f4400d" fill-opacity="0" stroke-width="2" x="0" y="0" width="60" height="102.2704029453876" class="image-rect"></rect> <svg filter="url(#colors9221120530)" x="0" y="0" width="60" height="102.2704029453876" filtersec="colorsf4278880692" class="image-svg-svg primary" style="overflow: visible;"><svg xmlns="http://www.w3.org/2000/svg" viewBox="0 0 55.1 91.10001"><path d="M2 14.8C2 7.7 7.7 2 14.8 2c7 0 12.8 5.7 12.8 12.8m-.1 0v30.8M2 14.8V70c0 3.5 2.9 6.4 6.4 6.4s6.4-2.9 6.4-6.4V14.8m12.7 61.5c0 7 5.7 12.8 12.8 12.8 7 0 12.8-5.7 12.8-12.8m-25.6 0V45.5M53 76.3V21.1c0-3.5-2.9-6.4-6.4-6.4-3.5 0-6.4 2.9-6.4 6.4v55.2M53 76.3" fill="none" stroke="#202121" stroke-width="4" stroke-miterlimit="10"></path></svg></svg> <defs><filter id="colors9221120530"><feColorMatrix type="matrix" values="0 0 0 0 0.953125  0 0 0 0 0.25  0 0 0 0 0.05078125  0 0 0 1 0" class="icon-fecolormatrix"></feColorMatrix></filter> <filter id="colorsf4278880692"><feColorMatrix type="matrix" values="0 0 0 0 0.99609375  0 0 0 0 0.99609375  0 0 0 0 0.99609375  0 0 0 1 0" class="icon-fecolormatrix"></feColorMatrix></filter> <filter id="colorsb9534195017"><feColorMatrix type="matrix" values="0 0 0 0 0  0 0 0 0 0  0 0 0 0 0  0 0 0 1 0" class="icon-fecolormatrix"></feColorMatrix></filter></defs></g></g> <g transform="translate(67,26.55019760131836)"><g data-gra="path-name" fill-rule="" class="tp-name iconsvg-namesvg" opacity="1" transform="matrix(1,0,0,1,0,0)"><g transform="scale(1)"><g><path d="M15.93-47.35L15.93 0 4.88 0 4.88-47.35 15.93-47.35ZM31.4 0L24.7 0 24.7-48.65 34.77-48.65 34.77-30.13Q36.66-31.98 39.05-33.1 41.44-34.22 44.66-34.22L44.66-34.22Q47.29-34.22 49.53-33.09 51.77-31.95 53.4-29.75 55.02-27.56 55.95-24.38 56.88-21.19 56.88-17.13L56.88-17.13Q56.88-13.33 55.82-10.11 54.76-6.89 52.86-4.52 50.96-2.15 48.31-0.81 45.66 0.52 42.45 0.52L42.45 0.52Q40.95 0.52 39.76 0.23 38.58-0.07 37.59-0.6 36.59-1.14 35.77-1.89 34.94-2.63 34.16-3.51L34.16-3.51 33.8-1.82Q33.57-0.78 32.97-0.39 32.37 0 31.4 0L31.4 0ZM41.15-26.65L41.15-26.65Q40.04-26.65 39.15-26.44 38.25-26.23 37.49-25.84 36.73-25.45 36.08-24.85 35.42-24.25 34.77-23.46L34.77-23.46 34.77-9.17Q35.91-7.9 37.25-7.39 38.58-6.89 40.04-6.89L40.04-6.89Q41.44-6.89 42.61-7.44 43.78-8 44.64-9.21 45.5-10.43 45.99-12.38 46.48-14.33 46.48-17.13L46.48-17.13Q46.48-19.79 46.09-21.61 45.7-23.43 45-24.55 44.3-25.68 43.32-26.16 42.35-26.65 41.15-26.65ZM90.28 0L85.67 0Q84.24 0 83.51-0.39 82.78-0.78 82.29-2.02L82.29-2.02 81.58-3.87Q80.31-2.79 79.14-1.98 77.97-1.17 76.72-0.6 75.47-0.03 74.05 0.24 72.64 0.52 70.92 0.52L70.92 0.52Q68.61 0.52 66.72-0.08 64.84-0.68 63.52-1.85 62.2-3.02 61.49-4.76 60.77-6.5 60.77-8.78L60.77-8.78Q60.77-10.56 61.69-12.45 62.59-14.33 64.84-15.88 67.08-17.42 70.88-18.46 74.69-19.5 80.47-19.63L80.47-19.63 80.47-21.06Q80.47-24.02 79.25-25.33 78.03-26.65 75.79-26.65L75.79-26.65Q74-26.65 72.86-26.26 71.73-25.87 70.83-25.38 69.94-24.89 69.09-24.51 68.25-24.12 67.08-24.12L67.08-24.12Q66.04-24.12 65.31-24.62 64.58-25.12 64.16-25.87L64.16-25.87 62.34-29.02Q65.39-31.72 69.11-33.04 72.83-34.35 77.09-34.35L77.09-34.35Q80.14-34.35 82.6-33.36 85.05-32.37 86.76-30.6 88.47-28.83 89.38-26.39 90.28-23.95 90.28-21.06L90.28-21.06 90.28 0ZM74.1-6.14L74.1-6.14Q76.05-6.14 77.51-6.83 78.97-7.51 80.47-9.04L80.47-9.04 80.47-13.71Q77.45-13.59 75.5-13.2 73.55-12.8 72.41-12.22 71.27-11.63 70.83-10.89 70.39-10.14 70.39-9.26L70.39-9.26Q70.39-7.54 71.34-6.84 72.28-6.14 74.1-6.14ZM107.51 0L97.44 0 97.44-33.7 103.67-33.7Q104.62-33.7 105.25-33.28 105.88-32.86 106.14-32.01L106.14-32.01 106.73-30.06Q107.7-30.97 108.75-31.75 109.78-32.53 110.97-33.07 112.16-33.61 113.54-33.91 114.92-34.22 116.55-34.22L116.55-34.22Q119.31-34.22 121.44-33.26 123.56-32.3 125.03-30.6 126.49-28.89 127.24-26.54 127.98-24.18 127.98-21.42L127.98-21.42 127.98 0 117.91 0 117.91-21.42Q117.91-23.89 116.77-25.27 115.63-26.65 113.42-26.65L113.42-26.65Q111.77-26.65 110.3-25.94 108.84-25.22 107.51-24.02L107.51-24.02 107.51 0Z" transform="translate(-4.880000114440918, 48.650001525878906)"></path></g> <!----> <!----> <!----> <!----> <!----> <!----> <!----></g></g> <!----></g></g><defs v-gra="od"></defs></svg>
